<svg xmlns="http://www.w3.org/2000/svg" width="24" height="24" fill="none" viewBox="0 0 24 24">
	<path fill-rule="evenodd" d="M16.207 14.793c.391.391.391 1.023 0 1.414-.195.195-.451.293-.707.293-.256 0-.512-.098-.707-.293L12 13.414l-2.793 2.793c-.195.195-.451.293-.707.293-.256 0-.512-.098-.707-.293-.391-.391-.391-1.023 0-1.414L10.586 12 7.793 9.207c-.391-.391-.391-1.023 0-1.414s1.023-.391 1.414 0L12 10.586l2.793-2.793c.391-.391 1.023-.391 1.414 0s.391 1.023 0 1.414L13.414 12l2.793 2.793zM12 3c-4.971 0-9 4.029-9 9s4.029 9 9 9 9-4.029 9-9-4.029-9-9-9z" clip-rule="evenodd"/>
</svg>
