<svg xmlns="http://www.w3.org/2000/svg" width="25" height="24" fill="none" viewBox="0 0 25 24">
    <path fill-rule="evenodd" d="M13.914 12l5.293-5.293c.391-.391.391-1.023 0-1.414s-1.023-.391-1.414 0L12.5 10.586 7.207 5.293c-.391-.391-1.023-.391-1.414 0s-.391 1.023 0 1.414L11.086 12l-5.293 5.293c-.391.391-.391 1.023 0 1.414.195.195.451.293.707.293.256 0 .512-.098.707-.293l5.293-5.293 5.293 5.293c.195.195.451.293.707.293.256 0 .512-.098.707-.293.391-.391.391-1.023 0-1.414L13.914 12z" clip-rule="evenodd"/>
</svg>
